<svg xmlns="http://www.w3.org/2000/svg" version="1.1" x="0" y="0" width="240" height="60" viewBox="0 0 320 80.7" xml:space="preserve" class="main-header__logo emeritus-logo"><title>EMERITUS Institute of Management</title><style>.logo__path{fill:#006633}</style><g class="logo__logotype"><path class="logo__path" d="M40.3 80.7C18.1 80.7 0 62.6 0 40.3S18.1 0 40.3 0s40.3 18.1 40.3 40.3-18 40.4-40.3 40.4zm0-79.4c-21.4 0-38.9 17.5-38.9 39s17.5 38.9 38.9 38.9 38.9-17.5 38.9-38.9-17.4-39-38.9-39z"></path><path class="logo__path" d="M40.3 71.5c-17.2 0-31.2-14-31.2-31.2s14-31.2 31.2-31.2 31.2 14 31.2 31.2-14 31.2-31.2 31.2zm0-60.8C24 10.7 10.8 24 10.8 40.3s13.3 29.5 29.5 29.5c16.3 0 29.5-13.2 29.5-29.5.1-16.3-13.2-29.6-29.5-29.6z"></path><path class="logo__path" d="M41 38.5h-1.7l.2-28.8h1.7L41 38.5z"></path><path class="logo__path" d="M39.9 26.1H19.6c-.4 0-.7-.3-.7-.8s.3-.8.7-.8h20.3c.4 0 .8.3.8.8-.1.5-.4.8-.8.8zM25.3 39c-.4 0-.7-.3-.7-.8v-9.3c0-.4.3-.8.7-.8s.8.3.8.8v9.4c-.1.4-.4.7-.8.7zm-5.5.2c-.4 0-.8-.3-.8-.8v-9.7c0-.4.3-.8.8-.8.4 0 .7.3.7.8v9.7c.1.5-.2.8-.7.8zm11 0c-.4 0-.8-.3-.8-.8V29c0-.4.3-.8.8-.8.4 0 .7.3.7.8v9.5c0 .4-.3.7-.7.7zm5.4 0c-.4 0-.7-.3-.7-.8V29c0-.4.3-.8.7-.8s.8.3.8.8v9.5c-.1.4-.4.7-.8.7z"></path><path class="logo__path" d="M39.9 29.4h-20c-.4 0-.8-.3-.8-.8s.3-.8.8-.8h20c.4 0 .8.3.8.8s-.3.8-.8.8zm-20.4-3.3c-.2 0-.3-.1-.4-.2-.3-.2-.4-.7-.2-1 .3-.5 7.5-11 21.3-11 .4 0 .7.3.7.8 0 .4-.3.7-.7.7-13 0-20 10.2-20 10.3-.2.3-.4.4-.7.4zm46.3 18.8c-.9 0-1.6-.2-2.3-.5-.9-.5-1.8-.5-2.6 0-1.4.8-3.3.8-4.7 0-.9-.5-1.8-.5-2.6 0-1.4.8-3.3.8-4.7 0-.9-.5-1.8-.5-2.6 0-1.4.8-3.3.8-4.7 0-.9-.5-1.8-.5-2.6 0-1.4.8-3.3.8-4.7 0-.9-.5-1.8-.5-2.6 0-1.4.8-3.3.8-4.7 0-.9-.5-1.8-.5-2.6 0-1.4.8-3.3.8-4.7 0-.9-.5-1.8-.5-2.6 0-1.4.8-3.3.8-4.7 0-.5-.2-.4-.3-.9-.3l-.8.2-.5-6.7.9-.1c.7 0 1.5.3 2.1.6.9.5 2.2.5 3.2 0 1.3-.7 2.9-.7 4.2 0 .9.5 2.2.5 3.2 0 1.3-.7 2.9-.7 4.2 0 .9.5 2.2.5 3.2 0 1.3-.7 2.9-.7 4.2 0 .9.5 2.2.5 3.2 0 1.3-.7 2.9-.7 4.2 0 .9.5 2.2.5 3.2 0 1.3-.7 2.9-.7 4.2 0 .9.5 2.2.5 3.2 0 1.3-.7 2.9-.7 4.2 0 .9.5 2.2.5 3.2 0 1.3-.7 2.9-.7 4.2 0 .9.5 2.2.5 3.2 0 .7-.4 1.4-.5 2.1-.5h1.4l-.2 6.6-.8-.1c-.5 0-1.2.2-1.7.3-1.5.3-2.3.5-3.2.5zm-3.6-2.5c.7 0 1.4.2 2.1.5.9.5 2.2.5 3.2 0 .4-.2 1.6-.7 2.8-.5V39c-1.1 0-1.9.4-2.1.5-1.4.8-3.3.8-4.7 0-.9-.5-1.8-.5-2.6 0-1.4.8-3.3.8-4.7 0-.9-.5-1.8-.5-2.6 0-1.4.8-3.3.8-4.7 0-.9-.5-1.8-.5-2.6 0-1.4.8-3.3.8-4.7 0-.9-.5-1.8-.5-2.6 0-1.4.8-3.3.8-4.7 0-.9-.5-1.8-.5-2.6 0-1.4.8-3.3.8-4.7 0-.9-.5-1.8-.5-2.6 0-1.4.8-3.3.8-4.7 0-.9-.5-1.8-.5-2.6 0-1.4.8-3.3.8-4.7 0-.2-.1-1.2-.5-1.4-.6l-.4 3.6c.9-.5 2.2.2 2.6.5.9.5 2.2.5 3.2 0 1.3-.7 2.9-.7 4.2 0 .9.5 2.2.5 3.2 0 1.3-.7 2.9-.7 4.2 0 .9.5 2.2.5 3.2 0 1.3-.7 2.9-.7 4.2 0 .9.5 2.2.5 3.2 0 1.3-.7 2.9-.7 4.2 0 .9.5 2.2.5 3.2 0 1.3-.7 2.9-.7 4.2 0 .9.5 2.2.5 3.2 0 1.3-.7 2.9-.7 4.2 0 .9.5 2.2.5 3.2 0-.1-.5.6-.6 1.4-.6z"></path><path class="logo__path" d="M53.8 39c-.4 0-.7-.3-.7-.7V13.5c0-.4.3-.7.7-.7.4 0 .7.3.7.7v24.8c0 .4-.3.7-.7.7z"></path><path class="logo__path" d="M67.2 27.7H40.6c-.4 0-.7-.3-.7-.8s.3-.8.7-.8h26.6c.4 0 .8.3.8.8s-.4.8-.8.8zM37.3 58.4c-.1 1-.9 1.8-1.9 1.7-1-.1-1.8-.9-1.7-1.9.1-1 .9-1.8 1.9-1.7 1 .1 1.8.9 1.7 1.9zm-5 5c-.1 1-.9 1.8-1.9 1.7-1-.1-1.8-.9-1.7-1.9.1-1 .9-1.8 1.9-1.7 1 0 1.8.9 1.7 1.9zm10.6-5c.1 1 .9 1.8 1.9 1.7 1-.1 1.8-.9 1.7-1.9-.1-1-.9-1.8-1.9-1.7-1 .1-1.7.9-1.7 1.9zm5 5c.1 1 .9 1.8 1.9 1.7 1-.1 1.8-.9 1.7-1.9-.1-1-.9-1.8-1.9-1.7-1 0-1.8.9-1.7 1.9z"></path><path class="logo__path" d="M22 65.4c-.2 0-.4-.1-.5-.2-.3-.3-.3-.8 0-1.1l18.3-18.3c.3-.3.8-.3 1.1 0L59.2 64c.3.3.3.8 0 1.1-.3.3-.8.3-1.1 0L40.3 47.4 22.5 65.2c-.1.2-.4.2-.5.2z"></path><path class="logo__path" d="M32.2 69.9c-.2 0-.4-.1-.5-.2-.3-.3-.3-.8 0-1.1l8.1-7.9c.3-.3.8-.3 1.1 0l8.1 7.9c.3.3.3.8 0 1.1-.3.3-.8.3-1.1 0l-7.5-7.4-7.5 7.4c-.3.1-.5.2-.7.2z"></path></g><g class="logo__isotype"><path class="logo__path" d="M96.7 26.3c1.1 0 2.4.2 3.7.2 2.3 0 8.3-.1 10.1-.1 1.6 0 2.3-.1 2.7-.1.2 0 .4.2.5.7s.2 2.1.3 3c.1.2 0 .7-.2.7s-.2-.2-.5-.6c-.8-1.9-1.6-2.5-2.4-2.7-1-.2-6.8-.2-8.2-.2-.4.1-.5.2-.5 1.7V39c0 .5.2.7.2.7h5.5c2 0 2.6-.1 3-.3.3-.2.7-.7 1.2-1.7.2-.3.2-.5.5-.5.2 0 .2.2.2.5 0 .2-.2 1.6-.2 2.3-.1.8.1 2.2.1 2.5.2.6-.2.9-.2.9-.2 0-.2-.2-.5-.9-.2-.4-.5-1.2-1.1-1.4-1-.2-2.2-.2-8.2-.2-.3 0-.4.1-.4.9 0 2.3.2 8.4.2 9.2 0 .5.4 1.6 1.2 2 .7.3 1.4.5 4.4.5 3.7 0 4.5-.1 5.4-.9.5-.5 1.2-1.5 1.6-2.1.5-.5.6-.8.8-.8.2 0 .2.3.1.8-.2 1-.8 2.9-.9 3.3-.2.3-.4.5-.7.5-4.7 0-9.6-.2-13.2-.2-1.5 0-4 .2-4.4.2-.5 0-.9-.2-.9-.3s.3-.2.8-.4c1.5-.2 2.4-.8 2.4-2.8.2-7 .2-11.9.2-20.5 0-2.5-.5-3-2.1-3.4-.5-.1-.7-.2-.7-.4-.5-.1-.2-.2.2-.2zm27.2 0c1 .1 3.7.2 5.1.2.2 0 .4.2.5.6 1.9 4.2 8.1 16.6 10.9 21.8.2.2.2.1.4-.2 2.6-5 8.2-15.9 9.2-18 .5-1.1 1.1-2.7 1.3-3.6.1-.1.2-.5.5-.5 1.2 0 3.6-.2 4.8-.2.5 0 .7.1.7.2s-.3.4-.6.4c-2.6.6-2.8 1.1-2.9 3.7-.1 1.5-.2 6.8-.2 9 0 4.8.2 9.2.2 10.6.2 2.6.7 3 2.4 3.5.4.2.7.2.7.5 0 .2-.2.2-.8.2-.9 0-3.2-.2-4.4-.2-1.8 0-3 .1-3.7.1-.5 0-.9-.1-.9-.4 0-.2.5-.4.9-.4 1.9-.5 2.2-1.2 2.3-4.8.2-2.4.2-14.2.2-16.2 0-.5-.2-.5-.2-.2-3 5.9-8.4 16.5-10.5 21.2-.2.5-.4.8-.7.8-.2 0-.5-.7-.9-1.6-2.1-4.4-7.9-16.7-9.6-20.1-.2-.4-.3-.4-.4.2-.2 2.6-.7 14-.7 15.9 0 1.5 0 2.3.2 3.2.2 1.1 1.2 1.6 2.3 1.8.5.1.8.2.8.5s-.4.4-.9.3c-.5-.1-2.1-.2-3.7-.2s-2.8.2-3.2.2c-.5 0-.8-.1-.8-.3 0-.2.2-.3.8-.5 1.4-.2 1.9-.8 2.4-1.4.5-.7.7-2 .9-4.7.2-2.6.9-12.4.9-15.2 0-2.6-.2-3.3-1-4.1-.8-.9-1.6-.9-2.4-1.2-.4-.1-.7-.2-.7-.4-.1-.2.4-.5.8-.5zm41.8 0c1.1 0 2.4.2 3.7.2 2.3 0 8.3-.1 10.1-.1 1.6 0 2.3-.1 2.7-.1.2 0 .4.2.5.7s.2 2.1.3 3c.1.2 0 .7-.2.7s-.2-.2-.5-.6c-.8-1.9-1.6-2.5-2.4-2.7-1-.2-6.8-.2-8.2-.2-.4.1-.5.2-.5 1.7V39c0 .5.2.7.2.7h5.5c2 0 2.6-.1 3-.3.3-.2.7-.7 1.2-1.7.2-.3.2-.5.5-.5.2 0 .2.2.2.5 0 .2-.2 1.6-.2 2.3-.1.8.1 2.2.1 2.5.2.6-.2.9-.2.9-.2 0-.2-.2-.5-.9-.2-.4-.5-1.2-1.1-1.4-1-.2-2.2-.2-8.2-.2-.3 0-.4.1-.4.9 0 2.3.2 8.4.2 9.2 0 .5.4 1.6 1.2 2 .7.3 1.4.5 4.4.5 3.7 0 4.5-.1 5.4-.9.5-.5 1.2-1.5 1.6-2.1.5-.5.6-.8.8-.8.2 0 .2.3.1.8-.2 1-.8 2.9-.9 3.3-.2.3-.4.5-.7.5-4.7 0-9.6-.2-13.2-.2-1.5 0-4 .2-4.4.2-.5 0-.9-.2-.9-.3s.3-.2.8-.4c1.5-.2 2.4-.8 2.4-2.8.2-7 .2-11.9.2-20.5 0-2.5-.5-3-2.1-3.4-.5-.1-.7-.2-.7-.4-.5-.1-.2-.2.2-.2zm41.5 1.5c1.9 1.4 2.7 3.3 2.7 5.3 0 2.9-1.5 4.2-2.5 5-.7.6-1.9 1.1-2.5 1.4-.2.1-.2.4.1.8.9 1.7 3.3 5.8 4.7 7.8 1.4 1.9 2.3 3.1 3.2 4 1.3 1.4 2.5 1.7 3.3 1.7.3 0 .5.2.5.2 0 .1-.2.2-.5.4-.4.2-1.2.2-2 .2-2.7 0-4.7-1.2-6.4-3.5-1.9-2.6-5.1-7.9-6.1-9.3-.5-.8-1-1.2-1.6-1.2-.4-.1-.9-.2-1.9-.2-.2.1-.4.2-.4.5-.1.5-.1 5.7-.1 7.3 0 2.3.2 3.8.4 4.2.2.5.5 1 2 1.2.5.1.7.2.7.4s-.4.3-.9.3c-.8 0-2.1-.2-3.7-.2s-3.2.2-4 .2c-.5 0-.8-.1-.8-.3 0-.2.2-.3.9-.4 1.5-.3 1.9-.7 2-2.5.2-2.5.2-6.1.2-11.6 0-6.1-.2-8.9-.2-10.4-.1-1.2-.2-1.9-2-2.2-.4-.1-.8-.2-.8-.4s.2-.2.8-.2c.6 0 1.9.2 3.4.2 1.9 0 3-.2 5.4-.2 2.8-.1 4.6.4 6.1 1.5zm-9-.5c-.1.1-.2.1-.2.9-.1.9-.1 10-.1 10.8 0 .5.2.8.4.8.2.1.8.1 1.1.1 1.2-.1 3.7-.4 4.7-.9 1.2-.9 2.5-2.6 2.5-5 0-2.3-.6-3.9-1.8-5.1-1.2-1.2-2.8-1.8-5.1-1.8-.7-.1-1.3 0-1.5.2zm25.5-1c1.5 0 2.4.2 3.7.2 1.5 0 2.8-.2 3.8-.2.4 0 .7.1.7.2 0 .2-.2.4-.7.4-1.8.2-1.9.9-1.9 2.7-.2 2.2-.1 7.3-.1 10 0 6.4.1 10.2.2 11.5.2 1.7.4 2 1.7 2.3.6.2.8.2.8.5 0 .2-.3.2-.9.2-.7 0-1.8-.2-3.1-.2-2.2 0-3.5.2-4.4.2-.4 0-.7-.1-.7-.3 0-.2.2-.2.9-.5 1.6-.4 1.9-1.1 1.9-3.7.1-2.6.1-14.8.1-16.8 0-2.2-.1-3.6-.2-4.2-.2-1.5-.6-1.6-2.1-2-.3-.1-.5-.2-.5-.4.2.1.4.1.8.1zm34.5.1c2.1 0 2.9-.1 3.7-.5.2-.2.3-.2.4-.1.1.2.1.2.1.5-.2.5-.2 1.9-.2 3.3 0 .7-.2.9-.4.9s-.3-.4-.4-.6c-.1-.8-.5-1.7-.8-2.1-.4-.4-.9-.5-4-.5-1.4 0-3.6 0-4.3.1-.2.1-.2.4-.2.7 0 1.6-.1 11.9-.1 13.8-.1 2.5.2 7.9.2 9.3.2 1.5.6 1.8 2.1 2.3.5.2.8.2.8.5s-.3.3-.9.3c-1 0-2.4-.2-4.1-.2-2.3 0-3.6.2-4.3.2-.5 0-.8-.2-.8-.4s.4-.3.9-.4c2.1-.3 2.4-1 2.5-3 .3-4.3.3-21.8.2-22.5-.1-.4-.2-.5-.3-.5-.2-.1-1.2-.2-3.3-.2-1.8 0-2.9.1-3.7.2-.9.2-1.4.7-2 2.4-.2.5-.5.8-.6.8s-.2-.4-.2-.7c.2-1.3.5-2.6.5-3.8.1-.4.1-.5.2-.7.1-.1.2.1.4.2.2.2.8.4 1.4.5.7.1 5.1.2 9.6.2h7.6zm19.6-.1c.5 0 .7.2.7.2 0 .2-.4.4-.7.5-2.3.4-2.2 1.9-2.2 3.9-.1 4.2-.1 10.2 0 12.4.1 3.2.9 5.8 2.4 7.4 1.7 1.8 4.1 2.4 6.2 2.4 5 0 8.2-2.6 8.5-11.3.1-1.6.2-3.7.2-5.1 0-8.4-.4-8.9-1.6-9.4-.4-.2-.9-.2-1.2-.2-.4-.1-.7-.2-.7-.4s.2-.3.7-.3c.9 0 1.7.2 3 .2.9 0 2.1-.2 3.2-.2.5 0 .8.1.8.2 0 .2-.2.4-.9.5-1.8.3-1.9 1.2-2 3.2-.2 2.7-.2 8.6-.4 11.3-.2 4-.7 7.8-3.2 10.4-2.3 2.4-5.7 2.9-7.8 2.9-2.3 0-5.1-.6-6.9-2-2.7-2.1-3.7-4.7-3.8-10.1-.1-3.3-.1-10.3-.2-12.9-.2-2.2-.2-2.5-2.1-3-.2-.1-.5-.2-.5-.5 0-.2.4-.2.8-.2 1.1 0 2.3.2 4 .2 1.4.1 2.7-.1 3.7-.1zm41 .2c.2.1.3.4.3.5 0 1.2.2 2.5.2 3 .1.5-.1.9-.2.9s-.3-.2-.4-.7c-.4-1.2-.8-2-1.7-2.6-.9-.8-2.4-1.2-3.6-1.2-2.1 0-5.1 1.8-5.1 5.4 0 2.4 1.6 4 3.1 5.1 1.7 1.2 3.1 2.2 4.5 3.2 1.7 1.2 4.2 3.2 4.2 7 0 4.9-4.7 7.8-9.2 7.8-1.9 0-4.7-.5-6-1.2-.5-.2-.7-.5-.8-1.2-.1-.7-.5-2.2-.5-3.2-.1-.5.1-.9.2-.9s.3.2.5.9c.8 3.3 3.7 4.8 6.4 4.8 3.5 0 5.8-2.8 5.8-5.8s-2.1-4.7-5.3-6.8c-3.4-2.3-6.1-4.7-6.1-8.5 0-2.4 1.1-4.4 2.8-5.7 1.2-.9 3.1-1.8 5.7-1.8 2.3.1 4.4.8 5.2 1z"></path></g></svg>